<?xml version="1.0" standalone="no"?><!DOCTYPE svg PUBLIC "-//W3C//DTD SVG 1.1//EN" "http://www.w3.org/Graphics/SVG/1.1/DTD/svg11.dtd">
  <svg width="50" height="50">
            <g stroke="black" fill="transparent" stroke-width="2">
                <path d="M 0 6 L 25 6"></path>
            <path d="M 9,6 C 9,6 6,11 4,12 "></path>
            <path d="M 4,12 L 4 30 "></path>
            <path d="M 4,12 L 22 12 22 30 "></path>
            <path d="M 4,18 L 20 18 "></path>
            <path d="M 4,24 L 20 24 "></path>
            <path d="M 0 30 L 25 30 "></path>
            <path d="M 6,30 C 6,31 6,42 0,46 "></path>
            <path d="M 6.1,33 L20,33 C 20,33 18,40 6.5,46"></path>
            <path d="M 6.1,33 C 6.1,33 8.5,40 22,46 "></path>
            </g>        
        </svg>